<svg xmlns="http://www.w3.org/2000/svg" xmlns:xlink="http://www.w3.org/1999/xlink" width="100px" height="100px" viewBox="0 0 16 10" fill="#000" stroke="#FFF">
<symbol id="icon-question" viewBox="0 0 16 16"><path d="M11.636 1.455q2.364 0 4.517 0.926t3.71 2.483 2.483 3.71 0.926 4.517q0 2.375-0.926 4.528t-2.483 3.71-3.71 2.477-4.517 0.92q-2.375 0-4.528-0.92t-3.71-2.477-2.477-3.71-0.92-4.528q0-2.364 0.92-4.517t2.477-3.71 3.71-2.483 4.528-0.926zM11.636 21.818q0.807 0 1.375-0.568t0.568-1.375-0.568-1.369-1.375-0.563-1.375 0.563-0.568 1.369 0.568 1.375 1.375 0.568zM13.091 15.034q0-0.33 0.29-0.631t0.716-0.534 0.932-0.597 0.932-0.79 0.716-1.153 0.29-1.636q0-2.136-1.54-3.489t-3.79-1.352q-0.818 0-1.614 0.25t-1.358 0.608-1.006 0.71-0.659 0.602l-0.216 0.25 1.943 1.943q0.057-0.057 0.165-0.153t0.438-0.352 0.659-0.443 0.784-0.347 0.864-0.159q1.045 0 1.733 0.585t0.688 1.347q0 0.386-0.216 0.722t-0.557 0.585-0.756 0.5-0.824 0.534-0.75 0.614-0.557 0.818-0.216 1.080v0.966h2.909v-0.477z"></path></symbol>
<symbol id="icon-home" viewBox="0 0 16 16"><path d="M23.25 13.284q-0.125 0.295-0.466 0.295h-2.42v10.659q0 0.205-0.142 0.347t-0.347 0.142h-4.841q-0.205 0-0.347-0.142t-0.142-0.347v-8.239h-5.818v8.239q0 0.205-0.142 0.347t-0.347 0.142h-4.841q-0.205 0-0.347-0.142t-0.142-0.347v-10.659h-2.42q-0.341 0-0.466-0.295-0.080-0.33 0.114-0.545l11.148-11.148q0.148-0.148 0.352-0.148t0.352 0.148l11.148 11.148q0.193 0.216 0.114 0.545z"></path></symbol>
<symbol id="icon-dictionary" viewBox="0 0 16 16"><path d="M20.364 1.943v2.42h-14.545v2.909h14.057q0.205 0 0.347 0.142t0.142 0.347v16.477q0 0.205-0.142 0.347t-0.347 0.142h-14.057q-1.205 0-2.057-0.852t-0.852-2.057v-17.455q0-1.205 0.852-2.057t2.057-0.852h14.057q0.205 0 0.347 0.142t0.142 0.347z"></path></symbol>
</svg>
